# Alias Wavefront OBJ File Exported from SketchUp
# with OBJexporter (c) 2010-2011 TIG
# Units = meters

mtllib cube4.mtl

g cube4_Main-Metal_Brass_Ceiling
usemtl Metal_Brass_Ceiling
v 15.000000 -15.000000 15.000000
v -15.000000 -15.000000 -15.000000
v -15.000000 -15.000000 15.000000
v 15.000000 -15.000000 -15.000000
v 15.000000 -15.000000 -0.000000
v 15.000000 15.000000 -15.000000
v 15.000000 -15.000000 15.000000
v 15.000000 15.000000 15.000000
v 15.000000 -15.000000 -0.000000
v 15.000000 -15.000000 -15.000000
v -15.000000 15.000000 15.000000
v 15.000000 -15.000000 15.000000
v -15.000000 -15.000000 15.000000
v 15.000000 15.000000 15.000000
v 15.000000 15.000000 -15.000000
v -15.000000 -15.000000 -15.000000
v 15.000000 -15.000000 -15.000000
v -15.000000 15.000000 -15.000000
v -15.000000 -15.000000 -15.000000
v -15.000000 15.000000 15.000000
v -15.000000 -15.000000 15.000000
v -15.000000 15.000000 -15.000000
v 15.000000 15.000000 -15.000000
v -15.000000 15.000000 15.000000
v -15.000000 15.000000 -15.000000
v 15.000000 15.000000 15.000000
vn -0.000000 1.000000 0.000000
vn -0.000000 1.000000 0.000000
vn -0.000000 1.000000 0.000000
vn -0.000000 1.000000 0.000000
vn -0.000000 1.000000 0.000000
vn -1.000000 0.000000 -0.000000
vn -1.000000 0.000000 -0.000000
vn -1.000000 0.000000 -0.000000
vn -1.000000 0.000000 -0.000000
vn -1.000000 0.000000 -0.000000
vn -0.000000 -0.000000 -1.000000
vn -0.000000 -0.000000 -1.000000
vn -0.000000 -0.000000 -1.000000
vn -0.000000 -0.000000 -1.000000
vn 0.000000 0.000000 1.000000
vn 0.000000 0.000000 1.000000
vn 0.000000 0.000000 1.000000
vn 0.000000 0.000000 1.000000
vn 1.000000 -0.000000 0.000000
vn 1.000000 -0.000000 0.000000
vn 1.000000 -0.000000 0.000000
vn 1.000000 -0.000000 0.000000
vn 0.000000 -1.000000 -0.000000
vn 0.000000 -1.000000 -0.000000
vn 0.000000 -1.000000 -0.000000
vn 0.000000 -1.000000 -0.000000
vt 1.000000 -1.000000
vt -1.000000 1.000000
vt -1.000000 -1.000000
vt 1.000000 1.000000
vt 1.000000 0.000000
vt -1.000000 1.000000
vt 1.000000 -1.000000
vt 1.000000 1.000000
vt 0.000000 -1.000000
vt -1.000000 -1.000000
vt 1.000000 1.000000
vt -1.000000 -1.000000
vt 1.000000 -1.000000
vt -1.000000 1.000000
vt 1.000000 1.000000
vt -1.000000 -1.000000
vt 1.000000 -1.000000
vt -1.000000 1.000000
vt 1.000000 -1.000000
vt -1.000000 1.000000
vt -1.000000 -1.000000
vt 1.000000 1.000000
vt -1.000000 1.000000
vt 1.000000 -1.000000
vt 1.000000 1.000000
vt -1.000000 -1.000000
f 1/1/1 2/2/2 3/3/3
f 2/2/2 1/1/1 4/4/4
f 4/4/4 1/1/1 5/5/5
f 6/6/6 7/7/7 8/8/8
f 7/7/7 6/6/6 9/9/9
f 9/9/9 6/6/6 10/10/10
f 11/11/11 12/12/12 13/13/13
f 12/12/12 11/11/11 14/14/14
f 15/15/15 16/16/16 17/17/17
f 16/16/16 15/15/15 18/18/18
f 19/19/19 20/20/20 21/21/21
f 20/20/20 19/19/19 22/22/22
f 23/23/23 24/24/24 25/25/25
f 24/24/24 23/23/23 26/26/26

